<?xml version="1.0" encoding="UTF-8" standalone="no"?>
<!DOCTYPE svg PUBLIC "-//W3C//DTD SVG 1.1//EN" "http://www.w3.org/Graphics/SVG/1.1/DTD/svg11.dtd">
<svg width="100%" height="100%" viewBox="0 0 3508 2481" version="1.1" xmlns="http://www.w3.org/2000/svg" xmlns:xlink="http://www.w3.org/1999/xlink" xml:space="preserve" xmlns:serif="http://www.serif.com/" style="fill-rule:evenodd;clip-rule:evenodd;stroke-linecap:round;stroke-linejoin:round;stroke-miterlimit:1.5;">
    <g transform="matrix(14.015,0,0,14.015,-10758,-12340.6)">
        <text x="775.228px" y="904.481px" style="font-family:'Consolas', monospace;font-size:29.15px;">-rw-r--r--</text>
    </g>
    <g transform="matrix(3.33394,0,0,3.01872,-3069.04,-2246.18)">
        <path d="M1029.97,889.889L1029.97,994.429L1207.81,994.429L1208.41,891.691" style="fill:none;stroke:black;stroke-width:2.62px;"/>
    </g>
    <g transform="matrix(0.967917,0,0,3.01872,-872.469,-2245.47)">
        <path d="M1029.97,889.889L1029.97,994.429L1207.81,994.429L1208.41,891.691" style="fill:none;stroke:black;stroke-width:3.72px;"/>
    </g>
    <g transform="matrix(3.33394,0,0,3.01872,-2387.88,-2244.09)">
        <path d="M1029.97,889.889L1029.97,994.429L1207.81,994.429L1208.41,891.691" style="fill:none;stroke:black;stroke-width:2.62px;"/>
    </g>
    <g transform="matrix(3.33394,0,0,3.01872,-1722.62,-2246.93)">
        <path d="M1029.97,889.889L1029.97,994.429L1207.81,994.429L1208.41,891.691" style="fill:none;stroke:black;stroke-width:2.62px;"/>
    </g>
    <g transform="matrix(2.57172,2.44579,-2.44579,2.57172,121.487,-4407.54)">
        <text x="1037.18px" y="1083.61px" style="font-family:'Consolas-Bold', 'Consolas', monospace;font-weight:700;font-size:43.725px;">File Type</text>
    </g>
    <g transform="matrix(2.57172,2.44579,-2.44579,2.57172,573.528,-4406.82)">
        <text x="1037.18px" y="1083.61px" style="font-family:'Consolas-Bold', 'Consolas', monospace;font-weight:700;font-size:43.725px;">Owner permissions</text>
    </g>
    <g transform="matrix(2.57172,2.44579,-2.44579,2.57172,1256.46,-4405.36)">
        <text x="1037.18px" y="1083.61px" style="font-family:'Consolas-Bold', 'Consolas', monospace;font-weight:700;font-size:43.725px;">Group permissions</text>
    </g>
    <g transform="matrix(2.57172,2.44579,-2.44579,2.57172,1918.61,-4406.82)">
        <text x="1037.18px" y="1083.61px" style="font-family:'Consolas-Bold', 'Consolas', monospace;font-weight:700;font-size:43.725px;">User permissions</text>
    </g>
    <g transform="matrix(3.54903,0,0,3.54903,-3570.23,-2490.88)">
        <text x="1708.88px" y="800.027px" style="font-family:'Consolas-Bold', 'Consolas', monospace;font-weight:700;font-size:43.725px;">r - read</text>
    </g>
    <g transform="matrix(3.54903,0,0,3.54903,-3570.23,-2341.82)">
        <text x="1708.88px" y="800.027px" style="font-family:'Consolas-Bold', 'Consolas', monospace;font-weight:700;font-size:43.725px;">w - write</text>
    </g>
    <g transform="matrix(3.54903,0,0,3.54903,-3570.23,-2192.76)">
        <text x="1708.88px" y="800.027px" style="font-family:'Consolas-Bold', 'Consolas', monospace;font-weight:700;font-size:43.725px;">x - execute</text>
    </g>
</svg>
