<?xml version="1.0" standalone="no"?>
<!DOCTYPE svg PUBLIC "-//W3C//DTD SVG 20010904//EN"
 "http://www.w3.org/TR/2001/REC-SVG-20010904/DTD/svg10.dtd">
<svg version="1.0" xmlns="http://www.w3.org/2000/svg"
 width="976.000000pt" height="267.000000pt" viewBox="0 0 976.000000 267.000000"
 preserveAspectRatio="xMidYMid meet">

<g transform="translate(0.000000,267.000000) scale(0.100000,-0.100000)"
fill="#000000" stroke="none">
<path d="M276 2173 c-12 -12 -6 -33 9 -33 8 0 15 6 15 14 0 17 -14 28 -24 19z"/>
<path d="M350 2070 c0 -103 1 -110 20 -110 21 0 27 15 10 25 -6 3 -10 48 -10
101 0 56 -4 94 -10 94 -6 0 -10 -43 -10 -110z"/>
<path d="M3880 2070 c0 -105 1 -110 21 -110 17 0 20 4 15 23 -3 12 -6 61 -6
110 0 71 -3 87 -15 87 -12 0 -15 -19 -15 -110z"/>
<path d="M125 2147 c-11 -41 -1 -180 13 -185 8 -2 12 10 12 42 l0 46 40 0 c29
0 40 4 40 15 0 11 -11 15 -41 15 -38 0 -40 1 -37 28 3 24 7 27 46 30 28 2 42
8 42 18 0 10 -14 14 -55 14 -48 0 -55 -3 -60 -23z"/>
<path d="M2288 2164 c-5 -4 -8 -52 -8 -106 0 -80 3 -98 15 -98 11 0 15 11 15
40 0 37 2 40 28 40 43 0 72 26 72 64 0 19 -7 39 -15 46 -18 15 -97 25 -107 14z
m86 -40 c24 -23 4 -54 -34 -54 -28 0 -30 3 -30 35 0 30 3 35 24 35 14 0 32 -7
40 -16z"/>
<path d="M2943 2158 c2 -7 10 -13 17 -13 7 0 15 6 18 13 2 7 -5 12 -18 12 -13
0 -20 -5 -17 -12z"/>
<path d="M3272 2158 c5 -15 28 -18 29 -3 0 6 -7 12 -17 13 -10 3 -15 -1 -12
-10z"/>
<path d="M640 2142 c0 -10 -6 -24 -12 -30 -10 -10 -10 -15 -1 -20 7 -4 13 -34
15 -67 3 -60 3 -60 36 -63 35 -4 45 16 12 25 -17 4 -20 14 -20 54 0 42 3 49
20 49 25 0 26 17 1 25 -10 3 -21 15 -24 25 -6 25 -27 26 -27 2z"/>
<path d="M274 2107 c-10 -27 0 -140 14 -145 9 -3 12 16 12 72 0 69 -13 106
-26 73z"/>
<path d="M431 2094 c-50 -63 -7 -144 70 -132 38 5 35 28 -4 28 -33 0 -64 20
-50 33 3 4 26 7 50 7 39 0 43 2 43 25 0 32 -33 65 -64 65 -15 0 -33 -11 -45
-26z m77 -26 c3 -14 -3 -18 -27 -18 -29 0 -41 17 -24 34 13 13 48 1 51 -16z"/>
<path d="M720 2104 c0 -8 11 -42 25 -75 28 -65 26 -94 -6 -104 -10 -4 -19 -11
-19 -16 0 -13 34 -11 52 4 18 14 80 185 72 198 -10 17 -23 -1 -37 -49 -8 -26
-18 -47 -23 -47 -4 0 -15 21 -23 47 -14 45 -41 73 -41 42z"/>
<path d="M880 2007 c0 -83 3 -108 13 -105 6 3 13 17 15 31 3 23 8 27 37 27 41
0 65 29 65 80 0 59 -22 80 -80 77 l-50 -2 0 -108z m89 69 c28 -34 -5 -97 -43
-83 -16 6 -24 76 -9 90 11 12 40 8 52 -7z"/>
<path d="M1055 2095 c-31 -30 -32 -73 -4 -109 17 -22 28 -26 57 -24 19 2 37 9
40 16 2 8 -6 12 -26 10 -31 -2 -66 18 -56 33 3 5 25 9 50 9 39 0 44 2 44 23 0
34 -28 67 -56 67 -14 0 -36 -11 -49 -25z m73 -27 c3 -14 -3 -18 -27 -18 -29 0
-41 17 -24 34 13 13 48 1 51 -16z"/>
<path d="M2451 2094 c-47 -60 -13 -138 56 -132 48 4 57 28 10 28 -33 0 -64 20
-50 33 3 4 26 7 51 7 l45 0 -7 33 c-12 60 -69 77 -105 31z m69 -8 c0 -2 3 -11
6 -20 5 -13 -1 -16 -30 -16 -38 0 -44 8 -24 28 11 11 48 17 48 8z"/>
<path d="M2594 2111 c-2 -2 -4 -38 -4 -78 0 -55 3 -74 13 -71 7 3 14 28 17 59
4 44 9 56 28 64 35 15 27 34 -14 32 -19 -1 -37 -4 -40 -6z"/>
<path d="M2693 2104 c-9 -24 2 -138 15 -142 8 -3 12 12 12 51 0 57 16 84 45
73 11 -4 15 -21 15 -66 0 -47 3 -60 15 -60 11 0 15 13 15 54 0 56 17 83 45 72
11 -4 15 -21 15 -66 0 -47 3 -60 15 -60 12 0 15 13 15 61 0 33 -5 69 -10 80
-12 21 -50 25 -68 7 -8 -8 -15 -8 -25 0 -17 14 -98 11 -104 -4z"/>
<path d="M2950 2041 c0 -76 10 -102 24 -65 12 32 6 121 -9 134 -13 11 -15 2
-15 -69z"/>
<path d="M3026 2104 c-28 -27 -19 -52 25 -75 37 -18 40 -22 26 -36 -12 -12
-19 -13 -36 -4 -27 15 -47 5 -30 -15 6 -8 29 -14 51 -14 31 0 40 4 47 22 12
33 3 54 -32 69 -42 19 -48 41 -11 39 44 -3 48 -1 34 15 -16 20 -54 19 -74 -1z"/>
<path d="M3152 2108 c-24 -24 -14 -57 23 -75 35 -17 46 -38 23 -46 -7 -2 -21
0 -32 5 -24 13 -49 -8 -26 -22 21 -14 74 -12 88 2 24 24 14 57 -23 75 -44 21
-48 48 -6 40 34 -7 45 1 30 20 -14 16 -61 17 -77 1z"/>
<path d="M3275 2097 c-10 -38 -1 -130 13 -135 9 -3 12 16 12 72 0 74 -14 109
-25 63z"/>
<path d="M3362 2097 c-46 -49 -19 -137 41 -137 40 0 53 9 66 43 31 82 -51 154
-107 94z m80 -32 c16 -35 -3 -75 -36 -75 -25 0 -36 16 -36 54 0 48 53 63 72
21z"/>
<path d="M3514 2111 c-2 -2 -4 -37 -4 -78 0 -58 3 -73 15 -73 11 0 15 13 15
54 0 56 17 83 45 72 11 -4 15 -21 15 -66 0 -47 3 -60 15 -60 20 0 22 132 2
149 -13 10 -93 12 -103 2z"/>
<path d="M3752 2100 c-29 -27 -31 -99 -3 -124 24 -22 84 -18 89 5 2 13 -5 16
-35 15 -36 -1 -38 1 -41 32 -4 44 14 65 50 58 20 -4 28 -1 28 8 0 31 -57 34
-88 6z"/>
<path d="M3968 2109 c-29 -16 -20 -29 18 -26 52 3 55 -19 5 -33 -31 -8 -42
-17 -47 -35 -10 -39 11 -55 67 -53 l49 2 0 62 c0 44 -5 67 -16 78 -18 18 -51
20 -76 5z m60 -91 c-2 -17 -11 -24 -30 -26 -34 -4 -36 11 -6 32 31 22 40 20
36 -6z"/>
<path d="M4112 2108 c-23 -23 -14 -55 23 -78 19 -12 35 -25 35 -30 0 -13 -23
-18 -47 -9 -26 10 -43 -8 -22 -22 20 -13 73 -11 87 3 24 24 14 57 -23 75 -45
21 -48 48 -4 39 25 -5 30 -3 27 12 -4 21 -57 29 -76 10z"/>
<path d="M4235 2100 c-23 -25 -14 -45 30 -71 19 -12 35 -25 35 -29 0 -13 -23
-18 -47 -9 -26 10 -43 -8 -22 -22 27 -17 78 -10 89 11 16 29 5 54 -32 71 -37
17 -34 35 5 33 29 -2 38 20 11 30 -28 11 -51 6 -69 -14z"/>
<path d="M4371 2094 c-47 -60 -13 -138 56 -132 48 4 57 28 10 28 -37 0 -71 26
-46 34 8 3 30 7 49 8 43 4 51 32 20 66 -28 30 -64 28 -89 -4z m77 -26 c3 -14
-3 -18 -26 -18 -35 0 -45 9 -30 27 15 19 52 12 56 -9z"/>
<path d="M4518 2109 c-10 -5 -18 -21 -18 -34 0 -19 10 -30 42 -46 39 -20 41
-22 24 -35 -14 -10 -24 -10 -38 -3 -23 12 -33 6 -25 -16 9 -23 70 -19 93 6 22
24 13 45 -31 69 -40 22 -44 42 -9 40 44 -3 48 -1 34 15 -14 17 -47 19 -72 4z"/>
<path d="M9370 1845 c0 -33 -2 -35 -26 -29 -39 10 -74 -28 -74 -81 0 -56 22
-75 83 -73 l47 2 0 108 c0 89 -3 108 -15 108 -10 0 -15 -11 -15 -35z m-5 -105
c0 -43 -1 -45 -30 -45 -27 0 -30 4 -33 33 -4 40 13 64 42 60 18 -3 21 -10 21
-48z"/>
<path d="M8816 1854 c-3 -9 -6 -56 -6 -105 0 -71 3 -89 14 -89 10 0 16 13 18
42 2 23 8 43 14 45 7 2 24 -17 38 -42 15 -25 33 -45 41 -45 20 0 19 6 -6 47
l-21 34 21 23 c35 38 26 77 -22 95 -41 16 -84 14 -91 -5z m98 -37 c9 -15 7
-21 -9 -33 -33 -24 -60 -14 -63 24 -3 32 -2 33 29 30 18 -2 37 -11 43 -21z"/>
<path d="M622 1643 l-2 -213 355 0 355 0 0 -304 c0 -193 4 -307 10 -311 7 -4
10 103 10 314 l0 321 -360 0 -360 0 -3 203 -2 202 -3 -212z"/>
<path d="M3418 1844 c-5 -4 -8 -33 -8 -65 0 -50 -3 -60 -22 -71 -18 -10 -212
-14 -903 -18 -978 -6 -930 -2 -954 -71 -14 -40 -14 -116 -1 -124 6 -4 10 14
10 47 0 57 15 89 53 110 17 10 219 14 892 18 806 5 873 6 909 23 38 17 42 17
80 0 38 -17 105 -18 903 -23 856 -5 862 -5 890 -26 24 -18 28 -29 31 -80 5
-87 22 -93 22 -8 0 77 -14 101 -73 123 -19 8 -289 11 -839 11 -840 0 -920 3
-953 40 -10 10 -20 42 -24 70 -3 29 -9 48 -13 44z"/>
<path d="M8992 1797 c-26 -28 -29 -82 -6 -115 13 -19 24 -22 57 -20 23 2 42 9
45 16 3 9 -3 13 -19 11 -33 -4 -69 10 -69 26 0 9 15 15 48 17 43 3 47 5 44 27
-6 58 -62 79 -100 38z m68 -11 c0 -2 3 -11 6 -20 5 -13 -1 -16 -30 -16 -38 0
-44 8 -24 28 11 11 48 17 48 8z"/>
<path d="M9136 1805 c-21 -16 -19 -17 29 -19 39 -1 41 -30 3 -34 -35 -4 -50
-24 -46 -59 3 -27 5 -28 61 -29 l57 -1 0 56 c0 68 -19 101 -58 101 -15 0 -36
-7 -46 -15z m71 -99 c-7 -17 -52 -22 -62 -6 -8 12 48 41 59 30 5 -5 6 -16 3
-24z"/>
<path d="M6787 1763 c-12 -11 -8 -1133 3 -1133 7 0 10 193 10 560 l0 560 975
0 c643 0 975 3 975 10 0 11 -1952 15 -1963 3z"/>
<path d="M9164 1486 c-8 -22 3 -33 18 -18 9 9 9 15 0 24 -9 9 -13 7 -18 -6z"/>
<path d="M8806 1481 c-6 -9 29 -189 38 -198 15 -15 34 11 46 63 7 33 16 62 19
66 4 4 15 -24 25 -62 13 -52 22 -70 34 -70 14 0 21 21 36 100 10 55 16 103 12
107 -11 11 -23 -15 -30 -66 -10 -72 -22 -82 -35 -30 -18 74 -26 92 -38 96 -12
4 -29 -40 -39 -105 -8 -54 -18 -44 -34 36 -13 62 -23 81 -34 63z"/>
<path d="M9237 1451 c-12 -24 -14 -38 -7 -45 5 -5 10 -29 10 -52 0 -60 8 -74
41 -74 32 0 39 17 12 27 -25 9 -33 23 -33 61 0 26 5 35 20 39 26 7 26 33 1 33
-13 0 -21 8 -23 23 -3 20 -5 19 -21 -12z"/>
<path d="M9053 1424 c-9 -24 2 -138 15 -142 8 -2 12 10 12 41 0 59 7 77 38 88
14 5 22 13 18 17 -12 11 -78 8 -83 -4z"/>
<path d="M9160 1360 c0 -61 3 -81 13 -77 8 2 12 27 12 77 0 50 -4 75 -12 78
-10 3 -13 -17 -13 -78z"/>
<path d="M9340 1413 c-17 -22 -21 -37 -17 -68 7 -47 30 -67 76 -63 47 4 54 28
8 28 -37 0 -71 26 -46 34 8 3 30 7 49 8 27 2 36 8 38 25 4 28 -31 63 -62 63
-15 0 -33 -11 -46 -27z m78 -25 c3 -14 -3 -18 -26 -18 -35 0 -45 9 -30 27 15
19 52 12 56 -9z"/>
<path d="M7147 1383 c-12 -11 -8 -753 3 -753 6 0 10 130 10 370 l0 370 795 0
c523 0 795 3 795 10 0 11 -1592 15 -1603 3z"/>
<path d="M4720 1180 c0 -91 3 -110 15 -110 11 0 15 13 15 54 0 56 17 83 45 72
11 -4 15 -21 15 -66 0 -47 3 -60 15 -60 12 0 15 14 15 69 0 79 -12 97 -60 87
-29 -5 -30 -4 -30 29 0 24 -5 35 -15 35 -12 0 -15 -19 -15 -110z"/>
<path d="M1863 1264 c-11 -30 5 -155 23 -175 20 -23 72 -25 100 -5 16 12 20
29 23 106 2 74 0 91 -10 88 -10 -3 -15 -27 -17 -78 -3 -81 -12 -100 -48 -100
-32 0 -44 32 -44 116 0 61 -13 84 -27 48z"/>
<path d="M3103 1265 c-31 -22 -47 -87 -33 -131 14 -41 44 -64 85 -64 49 0 67
19 63 65 -3 37 -5 40 -35 43 -25 2 -33 -1 -33 -12 0 -9 9 -16 20 -16 24 0 28
-38 5 -46 -66 -26 -112 78 -58 131 12 13 26 15 55 11 29 -5 38 -3 38 8 0 29
-72 36 -107 11z"/>
<path d="M4452 1273 c-38 -15 -54 -111 -27 -162 25 -49 90 -57 130 -16 21 20
25 34 25 80 0 46 -4 60 -25 80 -23 24 -69 32 -103 18z m82 -45 c34 -48 9 -128
-39 -128 -13 0 -31 10 -39 22 -34 48 -9 128 39 128 13 0 31 -10 39 -22z"/>
<path d="M4630 1250 c0 -11 -4 -20 -9 -20 -11 0 -3 -102 10 -137 6 -17 17 -23
39 -23 33 0 41 17 13 27 -25 9 -33 23 -33 61 0 26 5 35 20 39 11 3 20 10 20
15 0 5 -9 12 -20 15 -11 3 -20 14 -20 24 0 11 -4 19 -10 19 -5 0 -10 -9 -10
-20z"/>
<path d="M2062 1218 c-26 -26 -14 -57 30 -79 39 -20 41 -22 24 -35 -14 -9 -24
-10 -38 -3 -24 13 -43 2 -27 -17 18 -22 75 -18 93 8 18 26 7 51 -31 70 -38 19
-42 40 -7 38 44 -3 48 -1 34 15 -15 18 -61 20 -78 3z"/>
<path d="M2202 1214 c-17 -12 -22 -25 -22 -63 0 -59 22 -84 71 -79 47 4 49 26
2 30 -27 2 -39 8 -41 21 -3 14 4 17 42 17 44 0 46 1 46 28 0 53 -53 78 -98 46z
m66 -36 c3 -14 -3 -18 -27 -18 -29 0 -41 17 -24 34 13 13 48 1 51 -16z"/>
<path d="M2340 1148 c0 -46 4 -78 10 -78 6 0 10 22 10 49 0 51 17 81 46 81 8
0 14 7 14 15 0 11 -10 14 -40 12 l-40 -2 0 -77z"/>
<path d="M3264 1221 c-2 -2 -4 -37 -4 -78 0 -57 3 -73 15 -73 10 0 15 15 17
58 3 48 7 59 26 67 35 15 27 34 -14 32 -19 -1 -37 -4 -40 -6z"/>
<path d="M3371 1204 c-23 -30 -27 -64 -10 -97 16 -29 28 -37 61 -37 38 0 68
35 68 80 0 73 -77 108 -119 54z m78 -18 c17 -20 10 -67 -11 -80 -38 -23 -72
29 -48 73 12 24 42 27 59 7z"/>
<path d="M3527 1223 c-11 -10 -8 -112 3 -134 9 -15 20 -19 60 -17 l50 2 0 78
c0 45 -4 78 -10 78 -5 0 -10 -22 -10 -48 0 -55 -18 -86 -46 -80 -16 3 -19 13
-22 66 -3 58 -9 72 -25 55z"/>
<path d="M3694 1221 c-2 -2 -4 -51 -4 -108 0 -85 3 -103 15 -103 10 0 15 10
15 30 0 28 3 30 34 30 42 0 66 29 66 80 0 57 -23 81 -76 78 -25 -2 -47 -5 -50
-7z m92 -45 c12 -49 -14 -87 -50 -73 -20 8 -23 83 -3 90 29 12 47 6 53 -17z"/>
<path d="M4900 1210 c-13 -13 -20 -33 -20 -60 0 -62 47 -96 104 -74 29 11 16
24 -24 24 -22 0 -40 2 -40 4 0 2 -3 11 -6 20 -5 13 2 16 40 16 44 0 46 1 46
28 0 56 -61 81 -100 42z m73 -24 c8 -19 -1 -26 -35 -26 -30 0 -31 1 -22 24 8
20 50 21 57 2z"/>
<path d="M5040 1147 c0 -58 3 -78 13 -75 7 3 14 28 17 59 4 44 9 56 28 64 36
16 26 33 -18 31 l-40 -1 0 -78z"/>
<path d="M8804 1057 c-3 -8 -4 -54 -2 -103 l3 -89 78 -2 c70 -1 78 1 88 20 18
33 18 33 44 2 31 -39 43 -25 20 24 -16 38 -16 40 1 70 23 39 8 54 -19 18 l-21
-27 -22 27 c-29 36 -42 22 -19 -20 16 -31 17 -35 1 -66 -12 -22 -22 -31 -32
-27 -9 3 -34 6 -55 6 -39 0 -40 1 -37 33 3 29 6 32 41 35 20 2 37 7 37 12 0 5
-17 10 -37 12 -33 3 -38 7 -41 31 -3 26 -2 27 42 27 34 0 46 4 46 15 0 20
-108 22 -116 2z"/>
<path d="M9540 1042 c0 -10 -5 -23 -12 -30 -9 -9 -9 -15 0 -24 7 -7 12 -31 12
-54 0 -60 8 -74 41 -74 32 0 39 17 12 27 -25 9 -33 23 -33 61 0 26 5 35 20 39
11 3 20 12 20 19 0 8 -9 14 -20 14 -13 0 -20 7 -20 20 0 11 -4 20 -10 20 -5 0
-10 -8 -10 -18z"/>
<path d="M9104 1013 c-18 -13 -34 -50 -34 -80 0 -44 34 -75 78 -71 47 4 56 28
10 28 -32 0 -58 14 -58 32 0 4 20 8 45 8 53 0 67 18 44 59 -15 26 -62 40 -85
24z m61 -43 c0 -16 -28 -25 -52 -16 -12 5 -13 9 -3 22 16 18 55 15 55 -6z"/>
<path d="M9242 997 c-29 -30 -30 -89 -2 -117 21 -21 65 -26 89 -11 21 14 3 32
-25 25 -31 -8 -54 11 -54 46 0 34 23 54 53 46 29 -7 41 2 26 21 -18 21 -63 16
-87 -10z"/>
<path d="M9367 1013 c-11 -10 -8 -87 4 -122 11 -31 12 -32 63 -28 l51 4 0 73
c0 50 -4 75 -12 78 -9 2 -13 -12 -13 -50 0 -56 -12 -78 -41 -78 -22 0 -29 20
-29 81 0 46 -7 59 -23 42z"/>
<path d="M9654 1013 c-6 -5 -16 -18 -23 -30 -30 -58 4 -127 62 -121 40 4 49
28 10 28 -28 0 -53 15 -53 32 0 4 18 8 41 8 l40 0 -3 43 c-3 39 -5 42 -33 45
-16 1 -35 -1 -41 -5z m61 -43 c0 -16 -28 -25 -52 -16 -12 5 -13 9 -3 22 16 18
55 15 55 -6z"/>
<path d="M7559 1008 c-7 -17 -6 -378 1 -378 6 0 11 76 12 178 l3 177 588 3
c380 1 587 6 587 12 0 9 -1188 16 -1191 8z"/>
<path d="M2118 974 c-5 -4 -8 -30 -8 -58 0 -28 -4 -56 -8 -62 -15 -24 -92 -34
-259 -34 -270 0 -313 -17 -321 -129 -3 -36 0 -61 7 -65 8 -5 11 10 11 46 0 60
17 93 59 111 15 6 119 13 246 17 182 5 226 9 257 24 35 17 38 17 63 0 23 -15
60 -19 239 -24 270 -8 283 -13 288 -113 4 -76 23 -73 22 3 -2 111 -28 123
-294 130 -272 7 -285 13 -292 123 -2 22 -6 35 -10 31z"/>
<path d="M3397 973 c-4 -3 -7 -32 -7 -64 0 -50 -3 -60 -22 -71 -16 -9 -94 -14
-248 -18 -293 -7 -310 -15 -310 -140 0 -38 4 -59 10 -55 6 3 10 28 10 55 0
108 13 113 303 120 207 6 230 8 254 26 l27 21 35 -21 c31 -18 57 -21 245 -26
274 -7 286 -13 286 -126 0 -30 5 -54 10 -54 11 0 13 91 4 127 -4 13 -23 33
-43 45 -34 21 -50 23 -246 28 -188 4 -214 7 -245 26 -31 18 -36 26 -40 71 -6
53 -12 68 -23 56z"/>
<path d="M4708 913 l-3 -67 -40 -12 c-24 -8 -113 -13 -225 -13 -216 -2 -255
-8 -293 -51 -25 -28 -28 -38 -25 -86 4 -68 23 -67 23 2 1 56 14 80 55 97 14 6
123 14 245 17 179 5 227 9 256 23 33 17 37 17 70 0 28 -15 71 -19 239 -23 183
-4 209 -7 240 -26 33 -19 35 -23 38 -80 5 -87 22 -93 22 -8 0 60 -3 74 -22 92
-35 32 -98 41 -274 42 -174 0 -255 15 -274 50 -5 10 -10 37 -10 59 0 69 -19
56 -22 -16z"/>
<path d="M1320 620 l0 -91 -30 16 c-38 20 -105 19 -140 -2 -15 -9 -39 -35 -52
-57 -19 -34 -23 -55 -23 -126 0 -96 23 -155 70 -180 36 -19 117 -18 148 3 32
21 37 21 37 2 0 -10 10 -15 30 -15 l30 0 -2 268 -3 267 -32 3 -33 3 0 -91z
m-29 -131 c29 -20 29 -22 29 -118 0 -95 -1 -98 -30 -126 -72 -69 -150 -9 -150
115 0 120 74 184 151 129z"/>
<path d="M1708 544 c-15 -8 -32 -23 -38 -34 -14 -26 -30 -17 -30 16 0 23 -3
24 -56 24 -52 0 -55 -1 -52 -22 2 -17 10 -23 28 -23 l25 0 0 -140 0 -140 -27
-3 c-22 -3 -28 -9 -28 -28 0 -24 1 -24 100 -24 99 0 100 0 100 24 0 21 -5 25
-37 28 l-38 3 -3 70 c-4 84 16 143 59 180 43 35 57 32 61 -12 3 -33 7 -38 29
-41 25 -3 26 -1 32 60 3 34 3 66 1 70 -9 13 -98 8 -126 -8z"/>
<path d="M3005 549 c-11 -6 -30 -23 -42 -37 l-23 -27 -6 33 c-6 31 -8 32 -61
32 -51 0 -54 -2 -51 -22 2 -17 10 -23 28 -23 l25 0 0 -140 0 -140 -27 -3 c-22
-3 -28 -9 -28 -28 0 -24 1 -24 100 -24 99 0 100 0 100 24 0 21 -5 25 -37 28
l-38 3 -3 75 c-2 62 1 83 20 119 43 85 108 106 108 36 0 -31 3 -35 25 -35 20
0 25 5 25 24 0 13 3 44 6 70 l7 46 -54 0 c-30 0 -63 -5 -74 -11z"/>
<path d="M4305 550 c-11 -4 -31 -20 -45 -35 l-25 -27 -5 29 c-5 26 -8 28 -63
31 -52 3 -57 1 -57 -18 0 -19 5 -22 40 -24 12 -1 15 -25 18 -144 l3 -142 -31
0 c-25 0 -30 -4 -30 -25 l0 -25 100 0 100 0 0 25 c0 22 -4 25 -35 25 l-35 0 0
85 c0 99 22 155 70 180 43 22 50 19 50 -25 0 -35 3 -40 24 -40 28 0 36 21 36
93 l0 47 -47 -1 c-27 0 -57 -4 -68 -9z"/>
<path d="M6810 553 c-8 -3 -29 -19 -46 -35 l-31 -29 -6 30 c-6 30 -8 31 -62
31 -53 0 -56 -1 -53 -22 2 -15 10 -23 23 -23 42 -1 45 -11 45 -135 0 -65 -3
-125 -6 -134 -4 -10 -18 -16 -35 -16 -24 0 -29 -4 -29 -25 l0 -25 100 0 100 0
0 25 c0 22 -4 25 -35 25 l-35 0 0 83 c0 99 23 158 69 181 44 23 51 20 51 -25
0 -38 1 -40 28 -37 26 3 27 5 30 71 l3 67 -48 -1 c-26 0 -55 -3 -63 -6z"/>
<path d="M1900 538 c0 -7 9 -62 20 -123 11 -60 26 -140 32 -177 l12 -68 42 0
c32 0 44 4 48 18 10 34 36 172 36 191 0 11 4 22 8 25 5 3 17 -38 26 -92 10
-53 19 -107 22 -119 4 -20 11 -23 49 -23 38 0 45 3 49 23 19 92 56 316 56 335
0 18 -6 22 -29 22 -33 0 -30 8 -51 -160 -15 -113 -19 -132 -29 -126 -5 3 -11
29 -15 58 -4 29 -14 84 -22 121 l-16 68 -36 -3 -37 -3 -25 -122 c-14 -67 -27
-124 -30 -127 -3 -3 -14 52 -24 122 -25 177 -23 172 -57 172 -17 0 -29 -5 -29
-12z"/>
<path d="M2380 542 c0 -5 24 -44 54 -87 62 -89 63 -75 -18 -188 -31 -43 -56
-82 -56 -88 0 -5 15 -9 34 -9 31 0 37 6 81 75 25 41 49 75 53 75 4 0 28 -34
55 -75 46 -73 49 -75 88 -75 29 0 38 3 33 13 -4 6 -36 53 -70 102 l-62 90 49
70 c78 111 76 105 30 105 -38 0 -41 -3 -76 -60 -20 -33 -40 -60 -43 -60 -4 0
-24 27 -45 60 -34 55 -40 60 -72 60 -19 0 -35 -4 -35 -8z"/>
<path d="M3194 528 c3 -13 17 -93 32 -178 14 -85 28 -161 30 -168 2 -7 21 -12
48 -12 l44 0 16 93 c27 150 28 152 36 136 4 -8 16 -62 25 -122 l18 -107 47 0
47 0 11 78 c10 67 30 183 47 275 4 27 3 28 -27 25 -37 -3 -36 1 -58 -185 -7
-57 -16 -103 -20 -103 -4 0 -18 55 -31 123 l-24 122 -36 3 c-41 3 -34 20 -74
-170 -17 -83 -35 -102 -36 -40 0 20 -8 84 -17 142 l-17 105 -33 3 c-30 3 -32
1 -28 -20z"/>
<path d="M3670 544 c0 -3 25 -41 56 -86 65 -92 66 -79 -21 -201 -30 -42 -55
-79 -55 -82 0 -3 16 -5 35 -5 33 0 38 5 83 75 26 41 51 73 57 71 5 -1 29 -35
54 -74 42 -69 45 -72 82 -72 22 0 39 3 39 6 0 3 -29 48 -65 100 -36 52 -65 97
-65 100 0 4 25 42 55 85 30 43 55 81 55 84 0 3 -17 5 -37 5 -36 0 -40 -4 -73
-60 -19 -33 -39 -60 -45 -60 -9 0 -31 32 -62 93 -12 22 -21 27 -54 27 -21 0
-39 -2 -39 -6z"/>
<path d="M4485 528 c2 -13 16 -88 30 -168 14 -80 28 -155 30 -167 5 -20 12
-23 49 -23 l44 0 16 93 c25 141 27 148 35 142 5 -2 16 -56 26 -120 l17 -115
47 0 47 0 12 73 c7 39 21 124 32 187 11 63 20 116 20 118 0 9 -59 -1 -63 -11
-3 -8 -13 -73 -23 -145 -9 -72 -20 -129 -24 -127 -5 3 -18 59 -30 125 l-23
120 -38 0 c-22 0 -39 -1 -39 -2 0 -9 -42 -216 -46 -231 -8 -25 -24 -11 -24 21
0 15 -7 78 -17 140 l-16 112 -34 0 c-29 0 -33 -3 -28 -22z"/>
<path d="M4967 537 c4 -7 31 -47 60 -89 l52 -76 -62 -88 c-35 -49 -66 -95 -71
-101 -5 -10 3 -13 32 -13 37 0 40 3 86 75 26 41 51 75 54 74 4 0 28 -34 54
-75 46 -72 48 -74 88 -74 30 0 39 3 34 12 -5 7 -33 49 -64 93 -31 44 -59 85
-63 91 -4 6 18 47 48 90 30 43 55 82 55 86 0 5 -15 8 -34 8 -30 0 -37 -6 -71
-60 -21 -33 -41 -60 -46 -60 -4 0 -24 27 -44 60 -35 57 -38 60 -76 60 -30 0
-38 -3 -32 -13z"/>
<path d="M6984 533 c2 -10 16 -85 31 -168 14 -82 28 -160 31 -172 4 -20 11
-23 48 -23 l43 0 23 120 c13 66 26 120 29 120 3 0 14 -50 24 -112 10 -62 21
-116 23 -120 3 -4 24 -8 48 -8 l42 0 13 72 c7 40 19 111 26 158 8 47 17 100
21 118 6 31 5 32 -24 32 -36 0 -34 6 -58 -162 -10 -71 -21 -128 -24 -128 -3 0
-16 56 -29 125 l-24 125 -37 0 -37 0 -22 -100 c-11 -56 -21 -109 -21 -120 0
-28 -17 -33 -23 -7 -5 18 -37 248 -37 263 0 2 -16 4 -36 4 -29 0 -34 -3 -30
-17z"/>
<path d="M7460 546 c0 -3 25 -40 55 -84 30 -44 55 -84 55 -89 0 -5 -25 -44
-56 -88 -83 -119 -81 -115 -37 -115 36 0 40 4 81 70 24 38 47 72 52 75 6 3 31
-28 57 -69 46 -72 50 -76 86 -76 20 0 37 3 37 6 0 3 -29 49 -65 101 -36 52
-65 97 -65 99 0 3 25 40 55 83 30 43 55 81 55 85 0 3 -16 6 -35 6 -32 0 -38
-5 -72 -60 -21 -33 -41 -60 -45 -60 -4 0 -15 12 -24 28 -56 91 -58 92 -96 92
-21 0 -38 -2 -38 -4z"/>
</g>
</svg>
